<svg width="681" height="79" viewBox="0 0 681 79" fill="none" xmlns="http://www.w3.org/2000/svg">
<path d="M675 0C678.314 2.60924e-06 681 2.68629 681 6V73C681 76.3137 678.314 79 675 79H658.987C658.995 78.8343 659 78.6676 659 78.5C659 72.701 654.299 68 648.5 68C642.701 68 638 72.701 638 78.5C638 78.6676 638.005 78.8343 638.013 79H604.987C604.995 78.8343 605 78.6676 605 78.5C605 72.701 600.299 68 594.5 68C588.701 68 584 72.701 584 78.5C584 78.6676 584.005 78.8343 584.013 79H180V76C180 72.134 176.866 69 173 69H29C25.134 69 22 72.134 22 76V79H6C2.68629 79 1.6107e-07 76.3137 0 73V15.2168C1.72596 16.3427 3.78559 17 6 17C12.0751 17 17 12.0751 17 6C17 3.78578 16.3435 1.72586 15.2178 0H675Z" fill="#ffffffff"/>
</svg>
