<svg width="1424" height="503" viewBox="0 0 1424 503" fill="none" xmlns="http://www.w3.org/2000/svg">
<path d="M1408 0C1416.84 0 1424 7.16344 1424 16V27H1415C1410.58 27 1407 30.5817 1407 35V165H1424V369.627C1422.74 369.22 1421.4 369 1420 369C1412.82 369 1407 374.82 1407 382C1407 389.18 1412.82 395 1420 395C1421.4 395 1422.74 394.779 1424 394.372V425.627C1422.74 425.22 1421.4 425 1420 425C1412.82 425 1407 430.82 1407 438C1407 445.18 1412.82 451 1420 451C1421.4 451 1422.74 450.779 1424 450.372V487C1424 495.837 1416.84 503 1408 503H16C7.16344 503 0 495.837 0 487V53C7.1797 53 13 47.1797 13 40C13 32.8203 7.1797 27 0 27V16C2.05286e-06 7.16345 7.16345 2.66661e-07 16 0H1408Z" fill="#CF6E1A"/>
</svg>
