<svg xmlns="http://www.w3.org/2000/svg" width="1024" height="1024" viewBox="0 0 1024 1024">
<path d="M 654,754 L 653,755 L 650,755 L 649,756 L 646,756 L 645,757 L 643,757 L 642,758 L 641,758 L 640,759 L 639,759 L 638,760 L 637,760 L 636,761 L 635,761 L 633,763 L 632,763 L 630,765 L 629,765 L 618,776 L 618,777 L 616,779 L 616,780 L 614,782 L 614,783 L 613,784 L 613,785 L 612,786 L 612,787 L 611,788 L 611,790 L 610,791 L 610,793 L 609,794 L 609,796 L 608,797 L 608,801 L 607,802 L 607,819 L 608,820 L 608,824 L 609,825 L 609,827 L 610,828 L 610,830 L 611,831 L 611,833 L 612,834 L 612,835 L 613,836 L 613,837 L 614,838 L 614,839 L 615,840 L 615,841 L 617,843 L 617,844 L 621,848 L 621,849 L 625,853 L 626,853 L 630,857 L 631,857 L 633,859 L 634,859 L 636,861 L 637,861 L 638,862 L 639,862 L 640,863 L 642,863 L 643,864 L 644,864 L 645,865 L 647,865 L 648,866 L 651,866 L 652,867 L 658,867 L 659,868 L 669,868 L 670,867 L 675,867 L 676,866 L 679,866 L 680,865 L 683,865 L 684,864 L 685,864 L 686,863 L 687,863 L 688,862 L 690,862 L 692,860 L 693,860 L 694,859 L 695,859 L 698,856 L 699,856 L 709,846 L 709,845 L 712,842 L 712,841 L 713,840 L 713,839 L 715,837 L 715,836 L 716,835 L 716,833 L 717,832 L 717,831 L 718,830 L 718,828 L 719,827 L 719,824 L 720,823 L 720,820 L 721,819 L 721,802 L 720,801 L 720,797 L 719,796 L 719,794 L 718,793 L 718,791 L 717,790 L 717,788 L 716,787 L 716,786 L 715,785 L 715,784 L 714,783 L 714,782 L 712,780 L 712,779 L 710,777 L 710,776 L 700,766 L 699,766 L 696,763 L 695,763 L 693,761 L 692,761 L 691,760 L 690,760 L 689,759 L 688,759 L 687,758 L 686,758 L 685,757 L 683,757 L 682,756 L 679,756 L 678,755 L 675,755 L 674,754 Z" fill="red" stroke="none"/><path d="M 385,754 L 384,755 L 381,755 L 380,756 L 378,756 L 377,757 L 375,757 L 374,758 L 372,758 L 371,759 L 370,759 L 369,760 L 368,760 L 366,762 L 365,762 L 363,764 L 362,764 L 359,767 L 358,767 L 351,774 L 351,775 L 348,778 L 348,779 L 346,781 L 346,782 L 345,783 L 345,784 L 344,785 L 344,786 L 343,787 L 343,788 L 342,789 L 342,791 L 341,792 L 341,794 L 340,795 L 340,798 L 339,799 L 339,804 L 338,805 L 338,816 L 339,817 L 339,822 L 340,823 L 340,826 L 341,827 L 341,829 L 342,830 L 342,832 L 343,833 L 343,834 L 344,835 L 344,836 L 345,837 L 345,838 L 346,839 L 346,840 L 347,841 L 347,842 L 350,845 L 350,846 L 360,856 L 361,856 L 363,858 L 364,858 L 366,860 L 367,860 L 368,861 L 369,861 L 370,862 L 371,862 L 372,863 L 373,863 L 374,864 L 376,864 L 377,865 L 379,865 L 380,866 L 382,866 L 383,867 L 389,867 L 390,868 L 402,868 L 403,867 L 408,867 L 409,866 L 412,866 L 413,865 L 415,865 L 416,864 L 417,864 L 418,863 L 420,863 L 421,862 L 422,862 L 424,860 L 425,860 L 426,859 L 427,859 L 430,856 L 431,856 L 441,846 L 441,845 L 443,843 L 443,842 L 445,840 L 445,839 L 446,838 L 446,837 L 447,836 L 447,835 L 448,834 L 448,832 L 449,831 L 449,830 L 450,829 L 450,826 L 451,825 L 451,822 L 452,821 L 452,814 L 453,813 L 453,810 L 452,809 L 452,801 L 451,800 L 451,797 L 450,796 L 450,793 L 449,792 L 449,791 L 448,790 L 448,788 L 447,787 L 447,786 L 446,785 L 446,784 L 445,783 L 445,782 L 443,780 L 443,779 L 441,777 L 441,776 L 430,765 L 429,765 L 427,763 L 426,763 L 424,761 L 423,761 L 422,760 L 421,760 L 420,759 L 419,759 L 418,758 L 417,758 L 416,757 L 414,757 L 413,756 L 411,756 L 410,755 L 407,755 L 406,754 Z" fill="red" stroke="none"/><path d="M 772,148 L 771,149 L 758,149 L 757,150 L 745,150 L 744,151 L 732,151 L 731,152 L 719,152 L 718,153 L 706,153 L 705,154 L 693,154 L 692,155 L 680,155 L 679,156 L 667,156 L 666,157 L 654,157 L 653,158 L 642,158 L 641,159 L 637,159 L 636,160 L 635,160 L 634,161 L 632,161 L 631,162 L 630,162 L 629,163 L 628,163 L 626,165 L 625,165 L 500,290 L 500,291 L 497,294 L 497,295 L 495,297 L 495,298 L 494,299 L 494,301 L 493,302 L 493,303 L 492,304 L 492,307 L 491,308 L 491,318 L 490,319 L 440,319 L 439,318 L 356,318 L 355,317 L 309,317 L 308,316 L 308,315 L 307,314 L 307,311 L 306,310 L 306,307 L 305,306 L 305,302 L 304,301 L 304,298 L 303,297 L 303,294 L 302,293 L 302,290 L 301,289 L 301,286 L 300,285 L 300,282 L 299,281 L 299,277 L 298,276 L 298,273 L 297,272 L 297,269 L 296,268 L 296,265 L 295,264 L 295,260 L 294,259 L 294,256 L 293,255 L 293,252 L 292,251 L 292,248 L 291,247 L 291,243 L 290,242 L 290,239 L 289,238 L 289,235 L 288,234 L 288,232 L 287,231 L 287,230 L 286,229 L 286,228 L 285,227 L 285,226 L 278,219 L 277,219 L 275,217 L 274,217 L 273,216 L 272,216 L 271,215 L 269,215 L 268,214 L 263,214 L 262,213 L 254,213 L 253,212 L 246,212 L 245,211 L 238,211 L 237,210 L 230,210 L 229,209 L 221,209 L 220,208 L 213,208 L 212,207 L 206,207 L 205,206 L 197,206 L 196,205 L 189,205 L 188,204 L 181,204 L 180,203 L 173,203 L 172,202 L 156,202 L 155,203 L 154,203 L 153,204 L 152,204 L 151,205 L 150,205 L 144,211 L 144,212 L 143,213 L 143,215 L 142,216 L 142,219 L 141,220 L 141,223 L 142,224 L 142,228 L 143,229 L 143,230 L 144,231 L 144,232 L 147,235 L 147,236 L 148,236 L 151,239 L 152,239 L 153,240 L 155,240 L 156,241 L 158,241 L 159,242 L 166,242 L 167,243 L 174,243 L 175,244 L 184,244 L 185,245 L 192,245 L 193,246 L 201,246 L 202,247 L 209,247 L 210,248 L 218,248 L 219,249 L 227,249 L 228,250 L 236,250 L 237,251 L 245,251 L 246,252 L 253,252 L 254,253 L 254,254 L 255,255 L 255,258 L 256,259 L 256,263 L 257,264 L 257,267 L 258,268 L 258,271 L 259,272 L 259,275 L 260,276 L 260,279 L 261,280 L 261,283 L 262,284 L 262,287 L 263,288 L 263,291 L 264,292 L 264,295 L 265,296 L 265,300 L 266,301 L 266,304 L 267,305 L 267,308 L 268,309 L 268,312 L 269,313 L 269,316 L 270,317 L 270,320 L 271,321 L 271,325 L 272,326 L 272,329 L 273,330 L 273,333 L 274,334 L 274,337 L 275,338 L 275,341 L 276,342 L 276,345 L 277,346 L 277,349 L 278,350 L 278,353 L 279,354 L 279,358 L 280,359 L 280,362 L 281,363 L 281,366 L 282,367 L 282,370 L 283,371 L 283,374 L 284,375 L 284,378 L 285,379 L 285,382 L 286,383 L 286,386 L 287,387 L 287,390 L 288,391 L 288,394 L 289,395 L 289,398 L 290,399 L 290,403 L 291,404 L 291,407 L 292,408 L 292,411 L 293,412 L 293,415 L 294,416 L 294,419 L 295,420 L 295,423 L 296,424 L 296,428 L 297,429 L 297,431 L 298,432 L 298,436 L 299,437 L 299,440 L 300,441 L 300,444 L 301,445 L 301,448 L 302,449 L 302,452 L 303,453 L 303,456 L 304,457 L 304,460 L 305,461 L 305,464 L 306,465 L 306,468 L 307,469 L 307,472 L 308,473 L 308,476 L 309,477 L 309,481 L 310,482 L 310,485 L 311,486 L 311,489 L 312,490 L 312,493 L 313,494 L 313,497 L 314,498 L 314,501 L 315,502 L 315,505 L 316,506 L 316,509 L 317,510 L 317,514 L 318,515 L 318,518 L 319,519 L 319,522 L 320,523 L 320,526 L 321,527 L 321,530 L 322,531 L 322,534 L 323,535 L 323,538 L 324,539 L 324,542 L 325,543 L 325,546 L 326,547 L 326,551 L 327,552 L 327,555 L 328,556 L 328,559 L 329,560 L 329,563 L 330,564 L 330,567 L 331,568 L 331,571 L 332,572 L 332,575 L 333,576 L 333,579 L 334,580 L 334,584 L 335,585 L 335,588 L 336,589 L 336,592 L 337,593 L 337,596 L 338,597 L 338,600 L 339,601 L 339,602 L 338,603 L 337,603 L 336,604 L 334,604 L 333,605 L 332,605 L 331,606 L 330,606 L 329,607 L 328,607 L 327,608 L 326,608 L 325,609 L 324,609 L 322,611 L 321,611 L 319,613 L 318,613 L 314,617 L 313,617 L 304,626 L 304,627 L 301,630 L 301,631 L 299,633 L 299,634 L 297,636 L 297,637 L 296,638 L 296,639 L 295,640 L 295,641 L 294,642 L 294,643 L 293,644 L 293,645 L 292,646 L 292,648 L 291,649 L 291,650 L 290,651 L 290,654 L 289,655 L 289,658 L 288,659 L 288,662 L 287,663 L 287,686 L 288,687 L 288,691 L 289,692 L 289,694 L 290,695 L 290,697 L 291,698 L 291,700 L 292,701 L 292,702 L 293,703 L 293,704 L 294,705 L 294,706 L 296,708 L 296,709 L 298,711 L 298,712 L 301,715 L 301,716 L 307,722 L 308,722 L 311,725 L 312,725 L 315,728 L 316,728 L 317,729 L 318,729 L 319,730 L 320,730 L 321,731 L 322,731 L 323,732 L 324,732 L 325,733 L 326,733 L 327,734 L 329,734 L 330,735 L 332,735 L 333,736 L 336,736 L 337,737 L 340,737 L 341,738 L 348,738 L 349,739 L 760,739 L 761,738 L 762,738 L 763,737 L 764,737 L 765,736 L 766,736 L 769,733 L 769,732 L 770,731 L 770,730 L 771,729 L 771,727 L 772,726 L 772,719 L 771,718 L 771,716 L 769,714 L 769,713 L 765,709 L 764,709 L 763,708 L 762,708 L 761,707 L 758,707 L 757,706 L 347,706 L 346,705 L 344,705 L 343,704 L 341,704 L 340,703 L 339,703 L 338,702 L 337,702 L 336,701 L 335,701 L 332,698 L 331,698 L 326,693 L 326,692 L 324,690 L 324,689 L 323,688 L 323,687 L 322,686 L 322,684 L 321,683 L 321,680 L 320,679 L 320,670 L 321,669 L 321,665 L 322,664 L 322,662 L 323,661 L 323,660 L 324,659 L 324,658 L 325,657 L 325,656 L 326,655 L 326,654 L 329,651 L 329,650 L 338,641 L 339,641 L 341,639 L 342,639 L 344,637 L 345,637 L 346,636 L 347,636 L 348,635 L 349,635 L 350,634 L 351,634 L 352,633 L 354,633 L 355,632 L 358,632 L 359,631 L 364,631 L 365,630 L 769,630 L 770,629 L 773,629 L 774,628 L 777,628 L 778,627 L 779,627 L 780,626 L 782,626 L 783,625 L 784,625 L 786,623 L 787,623 L 789,621 L 790,621 L 801,610 L 801,609 L 803,607 L 803,606 L 804,605 L 804,604 L 805,603 L 805,602 L 806,601 L 806,599 L 807,598 L 807,595 L 808,594 L 808,590 L 809,589 L 809,585 L 810,584 L 810,579 L 811,578 L 811,574 L 812,573 L 812,568 L 813,567 L 813,563 L 814,562 L 814,557 L 815,556 L 815,552 L 816,551 L 816,546 L 817,545 L 817,540 L 818,539 L 818,535 L 819,534 L 819,529 L 820,528 L 820,523 L 821,522 L 821,517 L 822,516 L 822,512 L 823,511 L 823,506 L 824,505 L 824,501 L 825,500 L 825,495 L 826,494 L 826,489 L 827,488 L 827,484 L 828,483 L 828,478 L 829,477 L 829,472 L 830,471 L 830,467 L 831,466 L 831,461 L 832,460 L 832,455 L 833,454 L 833,450 L 834,449 L 834,444 L 835,443 L 835,438 L 836,437 L 836,433 L 837,432 L 837,427 L 838,426 L 838,421 L 839,420 L 839,416 L 840,415 L 840,410 L 841,409 L 841,405 L 842,404 L 842,399 L 843,398 L 843,393 L 844,392 L 844,388 L 845,387 L 845,382 L 846,381 L 846,377 L 847,376 L 847,371 L 848,370 L 848,365 L 849,364 L 849,360 L 850,359 L 850,345 L 849,344 L 849,342 L 848,341 L 848,339 L 847,338 L 847,337 L 845,335 L 845,334 L 841,330 L 840,330 L 837,327 L 836,327 L 835,326 L 834,326 L 833,325 L 831,325 L 830,324 L 828,324 L 827,323 L 806,323 L 805,322 L 805,321 L 806,320 L 806,317 L 807,316 L 807,308 L 808,307 L 808,297 L 809,296 L 809,286 L 810,285 L 810,275 L 811,274 L 811,263 L 812,262 L 812,252 L 813,251 L 813,241 L 814,240 L 814,230 L 815,229 L 815,219 L 816,218 L 816,208 L 817,207 L 817,197 L 818,196 L 818,177 L 817,176 L 817,173 L 816,172 L 816,171 L 815,170 L 815,169 L 814,168 L 814,167 L 813,166 L 813,165 L 812,164 L 812,163 L 803,154 L 802,154 L 801,153 L 800,153 L 799,152 L 798,152 L 797,151 L 796,151 L 795,150 L 794,150 L 793,149 L 790,149 L 789,148 Z" fill="red" stroke="none"/>
</svg>