<?xml version="1.0" standalone="no"?>
<!DOCTYPE svg PUBLIC "-//W3C//DTD SVG 20010904//EN"
 "http://www.w3.org/TR/2001/REC-SVG-20010904/DTD/svg10.dtd">
<svg version="1.0" xmlns="http://www.w3.org/2000/svg"
 width="1024.000000pt" height="1024.000000pt" viewBox="0 0 1024.000000 1024.000000"
 preserveAspectRatio="xMidYMid meet">

<g transform="translate(0.000000,1024.000000) scale(0.100000,-0.100000)"
fill="#000000" stroke="none">
<path d="M5040 7624 c-14 -2 -59 -9 -100 -15 -90 -13 -236 -58 -337 -105 -184
-84 -399 -259 -516 -422 -159 -221 -242 -456 -254 -723 -6 -130 -5 -137 16
-158 11 -11 34 -21 49 -21 49 0 59 23 66 150 16 261 96 489 242 682 345 460
984 612 1499 356 174 -87 356 -245 453 -393 28 -44 59 -90 67 -102 33 -47 115
-15 115 44 0 34 -37 97 -116 199 -190 245 -471 420 -787 489 -69 15 -344 29
-397 19z"/>
<path d="M4983 7326 c-453 -86 -790 -433 -858 -883 -30 -200 -17 -257 58 -251
53 4 67 29 67 125 0 139 55 320 137 451 252 405 760 551 1188 341 156 -76 315
-226 398 -375 56 -102 57 -111 8 -119 -53 -9 -83 -34 -83 -69 0 -32 -3 -29
157 -170 122 -108 150 -122 187 -93 15 11 108 339 108 378 0 43 -51 50 -131
19 -28 -12 -53 -19 -54 -18 -2 2 -20 37 -40 78 -56 113 -126 208 -218 297
-140 136 -290 221 -475 270 -120 31 -335 40 -449 19z"/>
<path d="M5040 7026 c-251 -53 -446 -228 -528 -473 -24 -72 -26 -94 -30 -290
l-4 -213 71 0 71 0 0 193 c0 213 7 255 63 362 18 33 63 92 103 131 134 135
314 191 496 153 91 -19 196 -77 269 -149 134 -133 169 -239 169 -512 l0 -178
71 0 71 0 -5 203 c-5 229 -14 275 -79 407 -77 158 -250 302 -428 354 -76 23
-230 29 -310 12z"/>
<path d="M3815 6021 c-81 -37 -116 -95 -135 -226 -18 -122 -220 -1402 -304
-1925 -115 -713 -111 -685 -99 -756 23 -135 106 -249 221 -302 l57 -27 1620 0
1620 0 58 29 c109 56 198 184 211 304 5 45 -9 154 -68 512 -313 1914 -368
2239 -377 2268 -15 47 -66 102 -114 123 -36 17 -72 19 -342 19 l-303 0 0 -239
c0 -204 2 -240 16 -252 24 -20 44 -65 44 -99 0 -125 -167 -171 -237 -64 -23
37 -21 104 5 142 21 29 22 40 22 271 l0 241 -545 0 -545 0 0 -242 c0 -232 1
-243 21 -264 29 -31 36 -101 14 -143 -20 -40 -91 -75 -132 -65 -47 11 -91 51
-102 92 -13 46 0 101 29 127 19 17 20 31 20 257 l0 238 -307 0 c-278 0 -312
-2 -348 -19z"/>
</g>
</svg>
