<?xml version="1.0" encoding="UTF-8"?>
<!-- Generator: https://ezgif.com/png-to-svg -->
<svg version="1.1" xmlns="http://www.w3.org/2000/svg" width="1024" height="1024">
<path d="M0 0 C337.92 0 675.84 0 1024 0 C1024 337.92 1024 675.84 1024 1024 C686.08 1024 348.16 1024 0 1024 C0 686.08 0 348.16 0 0 Z " fill="#2A373E" transform="translate(0,0)"/>
<path d="M0 0 C0.79 -0.01 1.58 -0.01 2.4 -0.02 C5 -0.04 7.6 -0.04 10.2 -0.03 C12.01 -0.03 13.83 -0.04 15.65 -0.05 C19.45 -0.05 23.24 -0.05 27.04 -0.04 C31.91 -0.03 36.77 -0.05 41.63 -0.08 C45.38 -0.1 49.12 -0.1 52.87 -0.09 C54.66 -0.09 56.46 -0.1 58.25 -0.11 C60.76 -0.13 63.27 -0.11 65.77 -0.1 C66.51 -0.11 67.24 -0.12 68 -0.13 C73.1 -0.05 75.98 1.17 79.89 4.4 C82.91 7.54 83.51 10.39 84.24 14.64 C84.46 15.9 84.68 17.16 84.9 18.46 C85.13 19.83 85.36 21.2 85.59 22.58 C85.83 23.98 86.07 25.39 86.31 26.8 C86.95 30.49 87.57 34.19 88.19 37.88 C88.83 41.66 89.48 45.43 90.12 49.2 C91.39 56.6 92.64 64 93.89 71.4 C97.86 72.68 101.83 73.95 105.81 75.22 C106.92 75.58 108.04 75.93 109.19 76.3 C114.84 78.11 120.49 79.92 126.15 81.71 C138.46 85.65 150.65 90.54 162.08 96.57 C162.71 96.9 163.34 97.23 163.99 97.58 C165.63 98.46 167.26 99.37 168.88 100.29 C172.76 101.73 174.91 101.49 178.89 100.4 C182.05 98.54 182.05 98.54 185.01 96.03 C185.57 95.59 186.12 95.14 186.69 94.69 C188.44 93.28 190.16 91.84 191.89 90.4 C192.44 89.94 193 89.48 193.57 89 C196.31 86.71 199.04 84.39 201.76 82.07 C206.4 78.1 211.1 74.2 215.89 70.4 C216.76 69.71 217.64 69.01 218.55 68.29 C222.24 65.51 224.92 63.59 229.51 62.72 C237 64.24 242.23 68.16 247.49 73.52 C248.4 74.42 248.4 74.42 249.32 75.34 C251.3 77.31 253.27 79.3 255.23 81.29 C256.61 82.67 257.99 84.05 259.37 85.43 C262.24 88.31 265.11 91.19 267.98 94.09 C271.66 97.8 275.35 101.5 279.05 105.2 C281.89 108.04 284.73 110.89 287.56 113.73 C288.92 115.1 290.29 116.47 291.65 117.83 C293.55 119.73 295.43 121.64 297.32 123.55 C298.17 124.4 298.17 124.4 299.04 125.27 C302.89 129.18 302.89 129.18 302.89 131.4 C303.46 131.61 304.04 131.82 304.64 132.03 C307.87 134.01 309.15 136.05 310.89 139.4 C311.36 144.16 311.48 146.37 309.09 150.54 C307.84 152.02 307.84 152.02 306.57 153.53 C305.65 154.66 304.73 155.79 303.8 156.92 C303.32 157.49 302.84 158.07 302.34 158.66 C299.98 161.49 297.72 164.38 295.45 167.28 C295 167.85 294.55 168.42 294.08 169.01 C289.65 174.65 285.41 180.42 281.2 186.22 C278.89 189.4 278.89 189.4 277.07 191.46 C275.29 194.39 275.38 196 275.89 199.4 C277.27 202.52 279.01 205.41 280.76 208.34 C293.39 230.42 304.02 255.58 309.89 280.4 C323.37 283.17 336.86 285.85 350.45 288.06 C355.12 288.84 359.41 289.84 363.89 291.4 C366.36 291.78 368.83 292.09 371.32 292.35 C375.31 293.99 377.63 296.78 379.89 300.4 C380.69 303.45 380.68 306.34 380.62 309.47 C380.62 310.35 380.63 311.23 380.63 312.14 C380.64 315.03 380.61 317.93 380.58 320.82 C380.57 322.84 380.57 324.85 380.57 326.87 C380.57 331.09 380.54 335.32 380.5 339.54 C380.45 344.95 380.44 350.35 380.44 355.76 C380.44 359.93 380.43 364.09 380.4 368.25 C380.4 370.25 380.39 372.24 380.39 374.24 C380.38 377.02 380.35 379.81 380.32 382.59 C380.32 383.42 380.33 384.24 380.33 385.08 C380.25 389.69 379.8 392.62 376.89 396.4 C373.72 399.44 370.62 400.15 366.38 401.05 C365.74 401.19 365.1 401.33 364.44 401.47 C362.36 401.92 360.28 402.35 358.2 402.78 C356.76 403.08 355.32 403.39 353.88 403.7 C349.55 404.62 345.22 405.51 340.89 406.4 C339.62 406.67 338.35 406.93 337.05 407.2 C316.64 411.39 316.64 411.39 308.89 412.4 C308.56 413.84 308.56 413.84 308.22 415.31 C302.43 439.96 292.47 463.58 279.51 485.32 C276.72 490.13 276.72 490.13 275.67 495.51 C277.46 499.78 280.15 503.03 283.07 506.59 C284.35 508.18 285.62 509.78 286.89 511.38 C287.55 512.2 288.21 513.02 288.89 513.87 C292.16 518.02 295.31 522.27 298.45 526.53 C299.02 527.3 299.59 528.07 300.18 528.86 C302.79 532.4 305.34 535.99 307.76 539.67 C308.36 540.58 308.36 540.58 308.97 541.51 C310.64 544.97 310.69 548.69 309.89 552.4 C307.98 556.1 305.58 559.11 302.82 562.22 C302.13 563.01 301.44 563.8 300.73 564.61 C298.89 566.4 298.89 566.4 296.89 566.4 C296.63 566.99 296.37 567.57 296.11 568.17 C294.78 570.59 293.34 572.2 291.39 574.14 C290.68 574.86 289.96 575.58 289.22 576.32 C288.45 577.09 287.68 577.85 286.88 578.64 C285.68 579.84 285.68 579.84 284.46 581.06 C282.76 582.75 281.07 584.44 279.37 586.13 C276.79 588.69 274.22 591.26 271.64 593.83 C269.99 595.48 268.34 597.12 266.69 598.77 C265.93 599.53 265.17 600.29 264.38 601.07 C260.24 605.18 256.01 609.13 251.57 612.93 C249.36 614.87 247.34 616.96 245.32 619.09 C240.71 623.72 236.64 627.48 229.82 627.9 C223.26 627.07 218.7 622.57 213.64 618.53 C212.41 617.56 211.18 616.59 209.95 615.62 C209.3 615.1 208.65 614.59 207.98 614.06 C204.18 611.06 200.38 608.07 196.57 605.09 C195.85 604.52 195.12 603.94 194.37 603.35 C190.69 600.48 186.97 597.68 183.16 594.99 C182.11 594.24 182.11 594.24 181.04 593.48 C178.43 592.18 176.77 592.11 173.89 592.4 C171.59 593.43 169.46 594.51 167.26 595.72 C159.72 599.67 151.96 602.96 144.07 606.15 C142.94 606.61 141.81 607.07 140.64 607.55 C130.77 611.52 120.93 615.28 110.64 618.03 C109.13 618.44 107.63 618.85 106.12 619.26 C105.41 619.45 104.7 619.64 103.97 619.83 C100.94 620.66 97.91 621.53 94.89 622.4 C92.3 632.46 90.74 642.55 89.26 652.81 C84.38 686.59 84.38 686.59 78.89 692.4 C75.11 693.66 71.57 693.57 67.64 693.58 C66.38 693.59 66.38 693.59 65.09 693.6 C62.31 693.62 59.52 693.63 56.74 693.64 C55.79 693.65 54.84 693.65 53.86 693.65 C48.83 693.68 43.8 693.69 38.76 693.7 C33.57 693.71 28.37 693.74 23.17 693.78 C19.18 693.81 15.18 693.82 11.18 693.82 C9.27 693.83 7.35 693.84 5.44 693.86 C2.75 693.88 0.07 693.88 -2.61 693.87 C-3.4 693.89 -4.19 693.9 -5 693.91 C-8.75 693.88 -10.89 693.55 -14.08 691.51 C-19.36 686.05 -19.62 676.99 -20.59 669.78 C-20.98 667.23 -21.46 664.81 -22.05 662.31 C-23.65 655.28 -24.57 648.13 -25.61 641 C-25.94 638.81 -26.28 636.62 -26.64 634.43 C-26.94 632.52 -27.2 630.61 -27.4 628.69 C-27.73 626.36 -28.07 624.52 -29.11 622.4 C-32.02 620.82 -33.97 620.15 -37.11 619.4 C-39.06 618.81 -41.01 618.21 -42.95 617.61 C-45.13 616.96 -47.31 616.3 -49.49 615.65 C-57.5 613.22 -65.44 610.7 -73.24 607.65 C-73.93 607.38 -74.62 607.12 -75.33 606.84 C-79.33 605.23 -83.16 603.4 -87 601.45 C-90.89 599.52 -94.87 597.81 -98.86 596.09 C-99.7 595.72 -100.54 595.35 -101.4 594.96 C-102.21 594.62 -103.01 594.27 -103.85 593.92 C-104.57 593.6 -105.3 593.29 -106.04 592.96 C-108.5 592.3 -109.74 592.55 -112.11 593.4 C-120.75 598.4 -128.53 604.73 -136.3 610.95 C-139.37 613.41 -142.46 615.85 -145.55 618.28 C-146.38 618.94 -146.38 618.94 -147.23 619.61 C-148.85 620.89 -150.48 622.15 -152.11 623.4 C-152.7 623.87 -153.28 624.33 -153.89 624.81 C-157.43 627.51 -159.95 629.13 -164.55 629.15 C-165.42 629.19 -166.28 629.23 -167.17 629.26 C-174.48 627.13 -180.44 619.23 -185.72 613.93 C-186.41 613.25 -187.09 612.56 -187.8 611.85 C-189.24 610.41 -190.68 608.97 -192.11 607.53 C-194.3 605.34 -196.5 603.15 -198.69 600.96 C-200.1 599.56 -201.5 598.15 -202.91 596.74 C-203.56 596.1 -204.2 595.45 -204.87 594.78 C-208.5 591.13 -211.86 587.39 -215.11 583.4 C-217.47 580.93 -219.77 578.67 -222.49 576.59 C-225.38 574.18 -227.65 571.55 -230.07 568.69 C-233.19 565.2 -236.58 562.01 -239.98 558.8 C-242.93 555.49 -243.88 552.57 -244.74 548.28 C-243.75 542.15 -239.94 538.13 -236.11 533.4 C-235.21 532.28 -234.31 531.15 -233.4 530.03 C-231.93 528.2 -230.46 526.37 -228.98 524.54 C-224.66 519.16 -220.52 513.65 -216.43 508.09 C-215.51 506.85 -215.51 506.85 -214.57 505.57 C-209.71 499.21 -209.71 499.21 -209.11 491.4 C-210.3 488.63 -211.86 486.11 -213.43 483.53 C-221.56 469.49 -228.32 454.67 -233.99 439.47 C-234.28 438.71 -234.57 437.95 -234.87 437.16 C-236.28 433.32 -237.28 429.73 -237.8 425.66 C-238.76 419.05 -238.76 419.05 -242.11 413.4 C-248.32 409.84 -255.69 409.01 -262.66 407.94 C-266.14 407.4 -269.57 406.75 -273.02 406.06 C-277.45 405.18 -281.88 404.32 -286.32 403.49 C-295.44 401.78 -295.44 401.78 -299.93 400.84 C-300.84 400.65 -301.75 400.47 -302.7 400.28 C-306.88 398.77 -309.4 396.56 -311.73 392.8 C-313.38 388.74 -313.55 385.17 -313.53 380.86 C-313.55 379.61 -313.55 379.61 -313.56 378.33 C-313.58 375.57 -313.58 372.82 -313.58 370.07 C-313.59 368.15 -313.6 366.22 -313.61 364.3 C-313.62 360.27 -313.62 356.25 -313.61 352.22 C-313.61 347.07 -313.64 341.93 -313.68 336.78 C-313.71 332.81 -313.71 328.84 -313.7 324.87 C-313.71 322.97 -313.72 321.08 -313.73 319.18 C-313.76 316.52 -313.75 313.86 -313.73 311.2 C-313.74 310.43 -313.76 309.65 -313.77 308.85 C-313.68 303.09 -311.98 298.75 -308.11 294.4 C-305.52 292.89 -303.03 292.09 -300.11 291.4 C-298.83 291.1 -297.55 290.8 -296.23 290.48 C-294.89 290.22 -293.54 289.97 -292.2 289.72 C-291.46 289.58 -290.73 289.44 -289.98 289.29 C-287.63 288.85 -285.28 288.41 -282.93 287.97 C-281.31 287.66 -279.69 287.35 -278.08 287.04 C-274.13 286.29 -270.19 285.55 -266.25 284.81 C-263.19 284.23 -260.13 283.65 -257.08 283.06 C-252.42 282.17 -247.77 281.28 -243.11 280.4 C-242.79 279.27 -242.46 278.14 -242.12 276.97 C-241.68 275.45 -241.24 273.92 -240.8 272.4 C-240.59 271.66 -240.37 270.92 -240.15 270.15 C-238.69 265.14 -237.02 260.27 -235.11 255.4 C-234.77 254.51 -234.42 253.63 -234.07 252.71 C-221.99 221.73 -221.99 221.73 -214.58 208.99 C-214.16 208.26 -213.74 207.53 -213.3 206.79 C-212.49 205.4 -211.66 204.03 -210.82 202.67 C-209.22 199.98 -208.11 197.99 -208.11 194.83 C-209.42 191.65 -211.14 189.17 -213.18 186.4 C-213.6 185.82 -214.03 185.23 -214.48 184.62 C-219.32 178.02 -224.32 171.53 -229.31 165.04 C-232.61 160.75 -235.86 156.44 -239.02 152.05 C-239.58 151.27 -240.15 150.49 -240.73 149.68 C-242.96 146 -243.87 142.67 -243.11 138.4 C-241.61 135.24 -239.52 132.93 -237.11 130.4 C-236.27 129.51 -235.42 128.61 -234.55 127.68 C-229.72 122.69 -229.72 122.69 -227.11 120.4 C-226.45 120.4 -225.79 120.4 -225.11 120.4 C-224.62 118.92 -224.62 118.92 -224.11 117.4 C-221.68 114.72 -221.68 114.72 -219.11 112.4 C-218.45 112.4 -217.79 112.4 -217.11 112.4 C-217.11 111.74 -217.11 111.08 -217.11 110.4 C-215.7 109.02 -215.7 109.02 -213.72 107.38 C-208.69 103.1 -204.07 98.47 -199.43 93.78 C-198.6 92.95 -197.77 92.11 -196.92 91.26 C-195.33 89.66 -193.74 88.06 -192.15 86.46 C-190.59 84.89 -189.03 83.32 -187.47 81.76 C-185.55 79.84 -183.64 77.9 -181.74 75.96 C-180.53 74.73 -179.32 73.51 -178.11 72.28 C-177.51 71.66 -176.91 71.04 -176.29 70.4 C-168.56 62.59 -168.56 62.59 -164.08 62.25 C-157.66 62.53 -154.04 65.11 -149.36 69.28 C-148.67 69.87 -147.99 70.45 -147.28 71.06 C-145.21 72.82 -143.16 74.61 -141.11 76.4 C-138.95 78.27 -136.79 80.12 -134.61 81.97 C-134.1 82.4 -133.59 82.84 -133.07 83.29 C-128.68 86.99 -124.18 90.54 -119.61 94.03 C-118.94 94.55 -118.27 95.07 -117.58 95.61 C-116.62 96.33 -116.62 96.33 -115.64 97.07 C-115.08 97.5 -114.52 97.92 -113.94 98.36 C-111.6 99.69 -109.8 100.17 -107.11 100.4 C-104.6 99.68 -104.6 99.68 -102.11 98.38 C-101.16 97.92 -100.2 97.46 -99.21 96.99 C-98.19 96.49 -97.17 95.98 -96.11 95.47 C-74.47 85.22 -52.15 77.9 -29.11 71.4 C-26.66 59.88 -24.37 48.36 -22.59 36.72 C-22.46 35.89 -22.33 35.06 -22.2 34.21 C-21.56 30.09 -20.94 25.96 -20.35 21.82 C-20.11 20.28 -19.88 18.74 -19.64 17.2 C-19.55 16.51 -19.45 15.81 -19.35 15.09 C-18.6 10.32 -17.23 7.09 -14.11 3.4 C-9.43 0.48 -5.4 -0.03 0 0 Z " fill="#344147" transform="translate(478.11328125,164.595947265625)"/>
<path d="M0 0 C0.91 0.47 0.91 0.47 1.83 0.95 C3.09 1.62 4.34 2.33 5.55 3.09 C11.65 6.66 17.4 6.63 24.34 6.63 C26.19 6.65 26.19 6.65 28.07 6.68 C31.44 6.71 34.8 6.73 38.16 6.74 C40.27 6.74 42.38 6.75 44.49 6.77 C51.87 6.81 59.26 6.83 66.64 6.83 C73.48 6.83 80.32 6.88 87.16 6.96 C93.07 7.02 98.97 7.05 104.88 7.04 C108.39 7.04 111.9 7.06 115.42 7.11 C130.9 7.32 143.13 7.04 156.15 -1.89 C169.21 -10.08 187.06 -11.19 201.86 -7.91 C231.85 1.55 252.96 21.01 267.56 48.51 C287.82 87.91 295.51 131.66 301.86 175.04 C302.01 176.03 302.16 177.03 302.31 178.06 C303.93 189.42 304.08 200.82 304.17 212.29 C304.19 213.35 304.19 213.35 304.2 214.45 C304.4 231.54 302.75 249.85 290.55 263.04 C279.46 272.9 268.46 274.9 254.14 274.23 C238.49 272.92 224.87 261.88 214.73 250.69 C208.8 243.6 203.33 236.11 197.74 228.75 C178.7 203.61 178.7 203.61 150.86 190.04 C145.98 189.5 141.16 189.5 136.25 189.53 C134.83 189.53 133.41 189.52 131.98 189.52 C128.15 189.5 124.32 189.51 120.49 189.53 C116.46 189.54 112.43 189.54 108.4 189.53 C101.64 189.53 94.89 189.55 88.13 189.57 C80.33 189.6 72.54 189.6 64.74 189.59 C57.22 189.57 49.69 189.58 42.16 189.59 C38.97 189.6 35.78 189.6 32.59 189.6 C28.83 189.59 25.07 189.6 21.31 189.62 C19.28 189.63 17.26 189.62 15.24 189.62 C-2.86 189.76 -13.92 196.83 -26.47 209.36 C-33.53 216.81 -39.49 225.05 -45.59 233.28 C-49.61 238.69 -53.76 243.92 -58.14 249.04 C-58.9 249.95 -59.66 250.87 -60.45 251.82 C-69.24 262.05 -79.07 269.21 -92.14 273.04 C-93.13 273.37 -94.12 273.7 -95.14 274.04 C-109.52 275.25 -122.6 274.75 -134.07 265.14 C-147.81 251.12 -149.54 232.33 -149.52 213.66 C-149.51 212.99 -149.51 212.32 -149.51 211.63 C-149.24 147.7 -136.97 63.72 -91.33 15.79 C-66.07 -8.6 -31.37 -16.49 0 0 Z " fill="#ED731A" transform="translate(434.140625,377.96484375)"/>
<path d="M0 0 C1.01 -0 2.02 -0 3.06 -0 C4.11 0.02 5.16 0.04 6.25 0.06 C7.3 0.05 8.35 0.04 9.44 0.04 C17 0.1 17 0.1 19.49 1.54 C21.36 4.6 21.05 7.75 20.98 11.23 C20.97 11.98 20.97 12.73 20.96 13.5 C20.95 15.9 20.91 18.29 20.87 20.68 C20.86 22.31 20.84 23.93 20.83 25.56 C20.8 29.54 20.75 33.52 20.68 37.5 C21.69 37.48 22.69 37.45 23.73 37.43 C27.46 37.36 31.2 37.31 34.94 37.28 C36.55 37.26 38.17 37.23 39.78 37.19 C42.11 37.15 44.43 37.12 46.76 37.11 C47.48 37.08 48.19 37.06 48.93 37.04 C52.58 37.04 54.53 37.4 57.62 39.4 C61.77 43.62 60.98 48.17 61.06 53.81 C61.11 55.23 61.11 55.23 61.17 56.69 C61.18 57.61 61.2 58.53 61.21 59.48 C61.24 60.75 61.24 60.75 61.27 62.03 C60.38 65.79 58.75 67.21 55.68 69.5 C52.76 69.94 50.44 70.09 47.54 69.98 C46.38 69.97 46.38 69.97 45.21 69.96 C42.76 69.94 40.32 69.87 37.87 69.81 C36.21 69.78 34.54 69.76 32.88 69.74 C28.81 69.69 24.75 69.6 20.68 69.5 C20.72 71.1 20.72 71.1 20.75 72.74 C20.82 76.71 20.87 80.68 20.9 84.66 C20.92 86.38 20.95 88.09 20.99 89.81 C21.03 92.29 21.06 94.76 21.07 97.23 C21.09 98 21.12 98.76 21.14 99.55 C21.14 103.01 20.96 105.1 18.96 107.98 C14.96 110.64 10.91 110.11 6.25 110.06 C4.83 110.09 4.83 110.09 3.39 110.13 C2.02 110.13 2.02 110.13 0.62 110.12 C-0.2 110.13 -1.03 110.13 -1.88 110.13 C-5.58 109.17 -7.04 107.52 -9.32 104.5 C-9.76 101.64 -9.91 99.41 -9.8 96.57 C-9.8 95.82 -9.79 95.08 -9.78 94.3 C-9.76 91.93 -9.69 89.56 -9.63 87.18 C-9.6 85.57 -9.58 83.95 -9.56 82.34 C-9.51 78.39 -9.42 74.44 -9.32 70.5 C-10.78 70.54 -10.78 70.54 -12.27 70.58 C-15.89 70.67 -19.52 70.72 -23.14 70.77 C-24.71 70.8 -26.27 70.83 -27.84 70.87 C-30.1 70.93 -32.35 70.96 -34.61 70.98 C-35.31 71.01 -36 71.04 -36.72 71.06 C-40.5 71.06 -42.2 70.58 -45.26 68.29 C-47.47 65.29 -47.95 64.03 -47.95 60.37 C-47.95 59.42 -47.95 58.46 -47.95 57.48 C-47.93 56.5 -47.9 55.51 -47.88 54.5 C-47.89 53.51 -47.9 52.53 -47.91 51.51 C-47.87 47.02 -47.78 44.26 -45.41 40.37 C-41.76 37.1 -38.8 37.36 -34.12 37.4 C-33.41 37.4 -32.71 37.4 -31.98 37.4 C-29.72 37.41 -27.45 37.42 -25.19 37.43 C-23.66 37.44 -22.13 37.44 -20.59 37.45 C-16.83 37.46 -13.08 37.48 -9.32 37.5 C-9.34 36.52 -9.36 35.54 -9.38 34.53 C-9.45 30.89 -9.5 27.25 -9.54 23.62 C-9.56 22.04 -9.58 20.47 -9.62 18.9 C-9.67 16.63 -9.69 14.37 -9.71 12.11 C-9.73 11.4 -9.75 10.7 -9.77 9.98 C-9.77 6.68 -9.52 4.79 -7.62 2.05 C-4.85 0.18 -3.32 -0.01 0 0 Z " fill="#2A363F" transform="translate(390.31640625,423.50390625)"/>
<path d="M0 0 C5.07 2.95 8.43 7.03 11.12 12.19 C12.19 18.36 11.82 24.18 9 29.81 C4.65 34.75 0.2 39.07 -6.55 39.77 C-18.73 39.9 -18.73 39.9 -23.31 35.44 C-28.11 30.52 -30.99 26.68 -31.69 19.69 C-31.5 13.96 -29.5 8.87 -25.66 4.61 C-18.45 -1.87 -9.14 -4.09 0 0 Z " fill="#2A363F" transform="translate(589.3125,456.5625)"/>
<path d="M0 0 C6.6 3.32 9.86 8.38 12.19 15.38 C12.93 22.16 11 27.42 7.5 33.12 C2.63 37.86 -3.35 39.97 -10 40.75 C-16.76 40.08 -21.84 36.8 -26.31 31.75 C-30.34 26.81 -30.21 21.85 -30.15 15.68 C-29.57 10.01 -27.26 6.51 -23.03 2.82 C-15.96 -2.48 -8.19 -3.31 0 0 Z " fill="#2A363F" transform="translate(674.8125,455.625)"/>
<path d="M0 0 C5.25 2.98 8.64 6.36 10.75 12.06 C11.9 18.89 11.88 25.14 8.25 31.19 C3.97 36.58 -0.99 38.87 -7.69 40 C-13.82 40.45 -18.91 38.52 -24.06 35.31 C-29 30.24 -30.51 26.65 -30.75 19.62 C-30.54 13.97 -29.9 9.51 -26.25 5.06 C-18.43 -2.11 -10.02 -4.41 0 0 Z " fill="#2A363F" transform="translate(632.25,412.9375)"/>
<path d="M0 0 C3.8 2.09 6.38 4.06 8.69 7.81 C9.04 8.38 9.39 8.95 9.75 9.54 C12.05 15.13 11.74 22.66 9.85 28.33 C6.74 33.81 1.72 37.59 -4.3 39.41 C-11.65 40.87 -16.78 39.9 -23.07 35.7 C-27.69 31.81 -29.92 27.77 -30.71 21.78 C-30.95 14.46 -29.87 9.88 -25.12 4.19 C-17.2 -2.5 -9.62 -4.46 0 0 Z " fill="#2A363F" transform="translate(632.3125,499.1875)"/>
<path d="M0 0 C1.65 0 3.3 0 5 0 C5 0.33 5 0.66 5 1 C72.81 1.5 72.81 1.5 142 2 C141.34 2.99 140.68 3.98 140 5 C137.52 5.38 137.52 5.38 134.33 5.4 C133.12 5.41 131.92 5.42 130.68 5.44 C129.33 5.44 127.99 5.43 126.65 5.43 C125.24 5.44 123.83 5.45 122.42 5.46 C118.59 5.49 114.75 5.5 110.92 5.51 C106.92 5.52 102.92 5.54 98.91 5.57 C91.33 5.61 83.75 5.64 76.17 5.66 C67.54 5.69 58.9 5.73 50.27 5.78 C32.52 5.87 14.76 5.94 -3 6 C-3 5.34 -3 4.68 -3 4 C-1.68 4 -0.36 4 1 4 C0.67 2.68 0.34 1.36 0 0 Z " fill="#B76022" transform="translate(439,562)"/>
<path d="M0 0 C2.48 0.5 2.48 0.5 5 1 C5 3.31 5 5.62 5 8 C4.67 8 4.34 8 4 8 C3.67 9.98 3.34 11.96 3 14 C2.67 14 2.34 14 2 14 C1.94 13.24 1.88 12.48 1.82 11.7 C1.73 10.71 1.65 9.71 1.56 8.69 C1.48 7.7 1.4 6.72 1.32 5.7 C1.08 2.91 1.08 2.91 0 0 Z " fill="#CB681F" transform="translate(641,508)"/>
</svg>
