<svg width="200" height="260" viewBox="0 0 200 260" fill="none" xmlns="http://www.w3.org/2000/svg">
<path d="M188 0C194.627 2.57703e-07 200 5.37258 200 12V141C194.477 141 190 145.477 190 151C190 156.523 194.477 161 200 161V175H193C189.686 175 187 177.686 187 181V219C187 222.314 189.686 225 193 225H200V248C200 254.627 194.627 260 188 260H12C5.37258 260 1.36909e-07 254.627 0 248V86H6C9.31371 86 12 83.3137 12 80V42C12 38.6863 9.31371 36 6 36H0V12C0 5.37258 5.37258 2.57703e-07 12 0H188Z" fill="#CF6E1A"/>
</svg>
