<svg width="711" height="760" viewBox="0 0 711 760" fill="none" xmlns="http://www.w3.org/2000/svg">
<path d="M697 0C704.732 0 711 6.26801 711 14V100.991C699.402 100.991 690 110.393 690 121.991V273.026C690 284.443 699.111 293.732 710.458 294.02L711 294.026V745.354C711 753.086 704.732 759.354 697 759.354H328.5C328.5 745.94 317.625 735.065 304.211 735.065H99.2891C85.8746 735.065 75 745.94 75 759.354H14C6.26803 759.354 3.28917e-05 753.086 0 745.354V35.958C0.496645 35.9847 0.996696 36 1.5 36C16.6878 36 29 23.6878 29 8.5C29 5.5333 28.5284 2.67692 27.6592 0H697Z" fill="#fefefeff"/>
</svg>
